<?xml version="1.0" encoding="UTF-8" standalone="no"?>
<!DOCTYPE svg PUBLIC "-//W3C//DTD SVG 1.1//EN" "http://www.w3.org/Graphics/SVG/1.1/DTD/svg11.dtd">
<svg width="100%" height="100%" viewBox="0 0 800 320" version="1.1" xmlns="http://www.w3.org/2000/svg" xmlns:xlink="http://www.w3.org/1999/xlink" xml:space="preserve" xmlns:serif="http://www.serif.com/" style="fill-rule:evenodd;clip-rule:evenodd;stroke-linejoin:round;stroke-miterlimit:2;">
    <g transform="matrix(1.5625,0,0,1.5625,0,0)">
        <path d="M99.556,190.061L99.556,204.283L0,204.283L0,190.061L99.556,190.061ZM255.138,190.06C245.152,199.241 232.071,204.319 218.505,204.282L113.778,204.141L113.778,190.06L255.138,190.06ZM403.166,190.06L398.2,204.282L393.278,190.06L403.166,190.06ZM355.556,190.061L355.556,204.283L284.445,204.283L284.445,190.061L355.556,190.061ZM512,190.061L512,204.283L440.889,204.283L440.889,190.061L512,190.061ZM271.247,162.909C270.026,167.898 268.1,172.687 265.525,177.131L113.778,177.131L113.778,162.909L271.247,162.909ZM412.698,162.909L407.706,177.132L388.739,177.132L383.747,162.909L412.698,162.909ZM355.556,162.909L355.556,177.131L284.445,177.131L284.445,162.909L355.556,162.909ZM512,162.909L512,177.131L440.889,177.131L440.889,162.909L512,162.909ZM99.556,162.909L99.556,177.131L0,177.131L0,162.909L99.556,162.909ZM71.111,135.757L71.111,149.98L28.444,149.98L28.444,135.757L71.111,135.757ZM184.889,135.757L184.889,149.98L142.222,149.98L142.222,135.757L184.889,135.757ZM270.906,135.757C272.166,140.393 272.806,145.176 272.808,149.98L224.97,149.98L224.97,135.757L270.906,135.757ZM422.23,135.757L417.237,149.98L379.208,149.98L374.214,135.757L422.23,135.757ZM355.556,135.757L355.556,149.98L312.889,149.98L312.889,135.757L355.556,135.757ZM483.556,135.757L483.556,149.98L440.889,149.98L440.889,135.757L483.556,135.757ZM71.111,108.606L71.111,122.828L28.444,122.828L28.444,108.606L71.111,108.606ZM355.556,108.606L355.556,122.828L312.889,122.828L312.889,108.606L355.556,108.606ZM483.556,108.606L483.556,122.828L440.889,122.828L440.889,108.606L483.556,108.606ZM253.646,108.605C258.382,112.635 262.395,117.445 265.509,122.827L142.222,122.827L142.222,108.605L253.646,108.605ZM431.762,108.605L426.77,122.828L369.675,122.828L364.683,108.605L431.762,108.605ZM394.224,81.455L398.222,92.951L402.219,81.455L483.555,81.455L483.555,95.677L440.89,95.677L440.89,82.609L436.301,95.677L360.144,95.677L355.555,82.607L355.555,95.677L312.89,95.677L312.89,81.455L394.224,81.455ZM142.222,81.454L265.51,81.455C262.396,86.838 258.383,91.648 253.646,95.677L142.222,95.677L142.222,81.454ZM71.111,81.454L71.111,95.677L28.444,95.677L28.444,81.454L71.111,81.454ZM71.111,54.303L71.111,68.525L28.444,68.525L28.444,54.303L71.111,54.303ZM184.889,54.303L184.889,68.525L142.222,68.525L142.222,54.303L184.889,54.303ZM272.808,54.303C272.806,59.107 272.166,63.89 270.906,68.525L224.97,68.525L224.97,54.303L272.808,54.303ZM384.782,54.303L389.728,68.525L312.89,68.525L312.89,54.303L384.782,54.303ZM483.555,54.303L483.555,68.525L406.717,68.525L411.662,54.303L483.555,54.303ZM99.556,27.151L99.556,41.374L0,41.374L0,27.151L99.556,27.151ZM265.525,27.151C268.1,31.596 270.026,36.385 271.247,41.373L113.778,41.373L113.778,27.151L265.525,27.151ZM512,27.151L512,41.373L416.158,41.373L421.104,27.151L512,27.151ZM375.341,27.151L380.286,41.373L284.445,41.373L284.445,27.151L375.341,27.151ZM99.556,0L99.556,14.222L0,14.222L0,0L99.556,0ZM218.505,0C232.067,-0.018 245.141,5.058 255.138,14.222L113.778,14.222L113.778,0L218.505,0ZM512,0.001L512,14.223L425.6,14.223L430.546,0.001L512,0.001ZM365.899,0.001L370.845,14.223L284.445,14.223L284.445,0.001L365.899,0.001Z" style="fill-rule:nonzero;"/>
    </g>
</svg>
