<?xml version="1.0" encoding="UTF-8" standalone="no"?>
<!DOCTYPE svg PUBLIC "-//W3C//DTD SVG 1.1//EN" "http://www.w3.org/Graphics/SVG/1.1/DTD/svg11.dtd">
<svg width="100%" height="100%" viewBox="0 0 42 42" version="1.1" xmlns="http://www.w3.org/2000/svg" xmlns:xlink="http://www.w3.org/1999/xlink" xml:space="preserve" xmlns:serif="http://www.serif.com/" style="fill-rule:evenodd;clip-rule:evenodd;stroke-linejoin:round;stroke-miterlimit:2;">
    <path d="M0,20.67C0,32.09 9.26,41.35 20.68,41.35C22.1,41.35 23.48,41.21 24.82,40.94C21.78,39.43 19.48,36.68 18.56,33.35C12.47,32.34 7.83,27.05 7.83,20.67C7.83,13.57 13.58,7.82 20.68,7.82C27.03,7.82 32.3,12.43 33.34,18.48C36.67,19.38 39.43,21.68 40.96,24.71C41.22,23.4 41.36,22.06 41.36,20.67C41.35,9.26 32.09,0 20.68,0C9.27,0 0,9.26 0,20.67" style="fill-rule:nonzero;"/>
    <path d="M24.36,30.27C24.36,33.49 26.97,36.11 30.2,36.11C33.43,36.11 36.04,33.5 36.04,30.27C36.04,27.04 33.43,24.43 30.2,24.43C26.97,24.43 24.36,27.04 24.36,30.27" style="fill-rule:nonzero;"/>
</svg>
