<?xml version="1.0" encoding="UTF-8" standalone="no"?>
<!DOCTYPE svg PUBLIC "-//W3C//DTD SVG 1.1//EN" "http://www.w3.org/Graphics/SVG/1.1/DTD/svg11.dtd">
<svg width="100%" height="100%" viewBox="0 0 34 34" version="1.1" xmlns="http://www.w3.org/2000/svg" xmlns:xlink="http://www.w3.org/1999/xlink" xml:space="preserve" xmlns:serif="http://www.serif.com/" style="fill-rule:evenodd;clip-rule:evenodd;stroke-linejoin:round;stroke-miterlimit:2;">
    <g id="Logo" transform="matrix(1,0,0,1,0.000002,-0.000001)">
        <path id="Logo_2" d="M33.019,16.517C33.019,18.577 32.649,20.577 31.919,22.467L29.599,22.467C30.199,9.337 13.169,3.597 5.679,14.357C4.469,10.287 5.799,5.697 8.919,2.907C10.059,1.867 11.419,1.067 12.869,0.577C22.889,-2.343 33.179,6.257 33.009,16.527L33.019,16.517ZM33.019,24.347L33.019,33.057L16.479,33.057C16.269,33.057 16.079,33.057 15.889,33.037C11.599,32.887 7.589,31.097 4.599,28.007C-1.891,21.717 -1.381,10.097 5.299,4.337C2.959,8.067 2.709,12.987 4.649,16.927C6.799,21.397 11.469,24.357 16.479,24.347L33.019,24.347Z"/>
    </g>
</svg>
